<?xml version="1.0" standalone="no"?>
<!DOCTYPE svg PUBLIC "-//W3C//DTD SVG 20010904//EN"
 "http://www.w3.org/TR/2001/REC-SVG-20010904/DTD/svg10.dtd">
<svg version="1.0" xmlns="http://www.w3.org/2000/svg"
 width="1800.000000pt" height="1800.000000pt" viewBox="0 0 1800.000000 1800.000000"
 preserveAspectRatio="xMidYMid meet">
<g transform="translate(0.000000,1800.000000) scale(0.100000,-0.100000)"
fill="#e81c1e" stroke="none">
<path d="M16090 15341 c-14 -5 -35 -6 -48 -4 -12 3 -33 -2 -47 -11 -13 -9 -35
-16 -48 -16 -31 0 -218 -65 -282 -98 -99 -50 -111 -57 -150 -79 -22 -12 -60
-33 -85 -47 -25 -13 -56 -36 -69 -50 -14 -14 -30 -26 -36 -26 -9 0 -125 -101
-173 -152 -84 -89 -122 -131 -122 -138 0 -5 -13 -21 -29 -37 -16 -16 -38 -47
-50 -69 -32 -60 -43 -76 -78 -117 -18 -20 -33 -48 -33 -62 0 -19 -7 -26 -27
-31 -36 -9 -53 -22 -53 -43 0 -9 -14 -36 -30 -61 -16 -25 -30 -57 -30 -71 0
-14 -12 -40 -27 -57 -58 -66 -80 -98 -92 -140 -8 -28 -20 -47 -36 -54 -23 -10
-35 -34 -35 -72 0 -10 -13 -33 -29 -51 -16 -19 -36 -58 -45 -88 -10 -35 -25
-60 -39 -70 -13 -9 -30 -30 -37 -48 -8 -17 -24 -42 -37 -55 -13 -13 -23 -33
-23 -46 0 -27 -9 -42 -31 -50 -8 -3 -23 -29 -32 -58 -9 -29 -32 -73 -51 -99
-18 -25 -39 -63 -45 -83 -7 -21 -17 -40 -22 -44 -5 -3 -21 -27 -34 -54 -14
-27 -33 -54 -44 -59 -10 -6 -21 -25 -25 -44 -3 -18 -20 -47 -36 -65 -16 -18
-33 -45 -36 -60 -8 -40 -36 -102 -45 -102 -5 0 -16 -14 -25 -32 -9 -18 -23
-38 -30 -46 -8 -7 -14 -22 -14 -32 0 -10 -10 -31 -23 -47 -42 -53 -77 -109
-77 -126 0 -9 -13 -30 -29 -46 -17 -17 -36 -54 -45 -85 -11 -35 -25 -62 -40
-71 -12 -8 -29 -34 -36 -58 -19 -65 -44 -107 -94 -162 -25 -27 -46 -59 -46
-70 0 -20 -20 -56 -46 -82 -7 -7 -20 -36 -29 -65 -9 -29 -25 -60 -35 -69 -18
-15 -70 -107 -70 -122 0 -11 -59 -87 -78 -102 -7 -6 -18 -30 -23 -54 -5 -24
-25 -61 -43 -83 -19 -22 -37 -51 -41 -65 -3 -15 -19 -45 -35 -67 -16 -23 -34
-61 -41 -86 -7 -27 -28 -61 -52 -86 -37 -40 -58 -70 -72 -104 -4 -8 -14 -32
-23 -53 -8 -21 -26 -52 -39 -69 -12 -18 -23 -38 -23 -45 0 -7 -18 -39 -40 -70
-22 -32 -40 -67 -40 -78 -1 -11 -6 -30 -13 -42 -15 -27 -72 -90 -86 -94 -5 -2
-15 -26 -22 -54 -8 -29 -26 -64 -45 -85 -17 -19 -37 -52 -44 -73 -6 -21 -22
-50 -35 -65 -13 -15 -31 -54 -40 -86 -9 -31 -23 -60 -31 -63 -23 -8 -81 -94
-102 -151 -11 -28 -32 -66 -46 -83 -14 -17 -26 -39 -26 -49 0 -10 -16 -40 -36
-66 -20 -26 -48 -71 -61 -98 -40 -85 -55 -110 -85 -144 -15 -18 -28 -41 -28
-51 0 -10 -7 -24 -15 -31 -19 -16 -61 -89 -68 -120 -7 -28 -58 -111 -93 -150
-12 -14 -27 -42 -33 -62 -7 -20 -19 -42 -27 -48 -7 -7 -14 -18 -14 -24 0 -6
-9 -19 -20 -29 -11 -9 -20 -27 -20 -40 0 -13 -14 -43 -30 -66 -17 -23 -38 -63
-46 -89 -9 -26 -33 -66 -53 -89 -61 -70 -81 -100 -81 -121 0 -11 -15 -39 -34
-61 -19 -23 -37 -54 -41 -70 -3 -16 -13 -32 -21 -35 -8 -3 -14 -12 -14 -19 0
-8 -8 -25 -18 -38 -10 -13 -24 -43 -30 -66 -7 -23 -21 -52 -32 -65 -54 -64
-100 -135 -100 -154 0 -13 -14 -36 -31 -54 -18 -18 -35 -48 -41 -72 -5 -23
-22 -56 -38 -75 -17 -19 -30 -39 -30 -46 0 -7 -9 -20 -20 -30 -11 -9 -20 -25
-20 -35 0 -11 -23 -50 -50 -87 -28 -37 -54 -80 -57 -96 -3 -16 -9 -29 -14 -29
-5 0 -20 -17 -33 -38 -13 -21 -37 -52 -53 -68 -16 -16 -35 -45 -43 -64 -7 -19
-25 -48 -40 -65 -15 -16 -36 -43 -48 -60 -11 -16 -41 -46 -66 -65 -25 -19 -45
-40 -46 -46 0 -7 -55 -66 -122 -133 -68 -66 -175 -172 -238 -234 -118 -116
-157 -147 -186 -147 -9 0 -31 -15 -48 -33 -17 -17 -44 -38 -60 -45 -16 -7 -37
-23 -47 -36 -10 -12 -35 -28 -56 -34 -21 -6 -51 -23 -67 -37 -16 -14 -33 -25
-37 -25 -5 0 -22 -14 -39 -30 -17 -17 -41 -30 -53 -30 -26 0 -74 -28 -110 -64
-14 -14 -36 -26 -49 -26 -13 -1 -39 -10 -58 -20 -66 -36 -99 -50 -147 -61 -49
-12 -56 -15 -108 -49 -16 -11 -39 -20 -49 -20 -10 0 -37 -9 -60 -19 -58 -27
-130 -48 -209 -61 -40 -6 -81 -20 -97 -32 -16 -12 -42 -23 -57 -24 -15 -2 -72
-7 -126 -12 -54 -5 -103 -14 -109 -20 -7 -7 -28 -12 -48 -12 -19 0 -53 -5 -75
-10 -97 -23 -229 -31 -515 -31 -240 0 -323 4 -390 17 -47 9 -101 17 -121 19
-20 1 -50 10 -67 19 -17 9 -55 16 -84 16 -88 0 -251 31 -274 51 -11 11 -33 19
-49 19 -35 0 -88 16 -137 41 -20 10 -76 27 -124 38 -65 15 -93 26 -111 45 -16
18 -34 26 -57 26 -22 0 -46 10 -69 29 -20 15 -54 31 -75 35 -22 3 -58 21 -83
41 -24 19 -53 35 -64 35 -11 0 -36 13 -56 29 -19 16 -62 38 -95 49 -44 14 -62
26 -72 45 -7 15 -19 27 -26 27 -7 0 -34 16 -59 35 -25 19 -57 35 -72 35 -17 0
-42 16 -78 53 -95 94 -180 167 -193 167 -8 0 -21 12 -31 28 -20 31 -34 43 -44
36 -17 -10 -235 205 -254 250 -8 19 -24 38 -36 41 -11 4 -27 22 -35 41 -8 19
-19 34 -24 34 -9 0 -52 58 -75 101 -5 11 -13 19 -17 19 -4 0 -23 13 -41 30
-34 29 -49 58 -61 113 -4 18 -13 27 -25 27 -12 0 -21 10 -25 26 -4 14 -24 44
-46 67 -24 27 -43 60 -51 90 -6 26 -15 47 -20 47 -20 0 -76 76 -99 134 -14 35
-38 77 -52 95 -24 28 -48 86 -48 117 0 6 -14 23 -30 37 -18 16 -30 37 -30 52
0 15 -9 31 -25 41 -13 9 -27 24 -30 35 -4 10 -17 32 -30 48 -13 15 -32 50 -41
77 -9 27 -28 63 -44 79 -32 35 -50 67 -50 91 0 9 -16 39 -35 65 -19 27 -35 58
-35 69 0 11 -9 28 -21 38 -11 9 -28 34 -36 54 -8 21 -19 38 -23 38 -4 0 -15
17 -24 38 -24 54 -47 93 -78 134 -16 19 -28 46 -28 60 0 15 -17 47 -40 76 -22
27 -40 58 -40 67 0 10 -16 35 -35 56 -19 22 -35 47 -35 58 0 10 -7 25 -17 32
-9 8 -27 39 -40 69 -14 30 -37 69 -53 85 -15 17 -31 48 -35 70 -5 29 -19 52
-56 87 -27 26 -49 53 -49 60 0 42 -23 89 -50 103 -21 11 -32 27 -40 58 -6 23
-26 67 -44 97 -19 30 -37 70 -41 88 -4 18 -13 36 -21 39 -24 9 -94 124 -94
153 0 17 -13 38 -35 60 -29 28 -35 41 -35 75 0 33 -6 47 -30 70 -21 20 -30 38
-30 60 0 23 -10 42 -38 70 -20 22 -42 53 -47 69 -6 17 -17 30 -24 28 -17 -4
-61 25 -61 40 0 6 -27 38 -60 71 -33 33 -65 68 -71 78 -5 11 -14 19 -20 19 -6
0 -37 28 -70 62 -33 34 -70 69 -83 77 -130 87 -172 117 -174 123 -5 10 -209
108 -225 108 -7 0 -17 4 -22 9 -16 16 -118 51 -147 51 -15 0 -30 5 -33 10 -3
6 -17 10 -30 10 -13 0 -26 4 -29 9 -3 5 -25 9 -49 9 -24 1 -56 6 -71 12 -36
13 -403 14 -411 0 -3 -5 -25 -10 -47 -10 -40 0 -94 -13 -130 -31 -10 -5 -28
-9 -40 -9 -13 0 -36 -7 -52 -15 -15 -8 -36 -15 -45 -15 -9 0 -25 -7 -35 -15
-11 -8 -28 -15 -37 -15 -23 0 -204 -94 -249 -130 -19 -15 -46 -33 -60 -40 -39
-20 -86 -60 -158 -132 -37 -38 -73 -68 -79 -68 -7 0 -18 -10 -24 -22 -7 -13
-29 -38 -51 -56 -21 -19 -50 -54 -64 -78 -14 -24 -30 -44 -34 -44 -8 0 -34
-40 -75 -115 -12 -22 -34 -57 -48 -78 -14 -21 -29 -52 -32 -69 -4 -17 -16 -46
-27 -65 -22 -37 -74 -176 -88 -233 -22 -97 -32 -149 -34 -188 -2 -23 -8 -48
-14 -54 -19 -19 -16 -407 3 -444 8 -16 12 -37 9 -46 -2 -9 4 -53 16 -99 11
-45 20 -92 20 -105 0 -12 4 -25 9 -29 5 -3 19 -38 31 -78 13 -39 28 -79 35
-87 7 -8 19 -35 28 -60 9 -25 23 -63 31 -85 8 -22 15 -62 16 -88 0 -27 6 -61
14 -75 8 -15 29 -58 47 -97 18 -38 43 -80 56 -92 13 -12 23 -33 23 -47 0 -13
6 -31 13 -38 29 -30 57 -78 57 -97 0 -13 22 -45 53 -76 38 -39 58 -70 70 -108
9 -30 30 -66 47 -82 17 -16 32 -44 36 -64 7 -41 34 -88 64 -116 11 -10 20 -31
20 -46 0 -18 8 -34 20 -41 11 -7 20 -18 20 -25 0 -6 12 -25 26 -42 14 -17 30
-45 35 -63 5 -18 27 -55 49 -82 23 -28 47 -71 56 -101 8 -29 21 -59 29 -65 8
-7 15 -19 15 -27 0 -7 7 -16 15 -19 8 -4 15 -17 15 -30 0 -13 14 -39 31 -57
17 -17 40 -49 50 -69 10 -20 23 -39 29 -43 5 -3 14 -24 20 -46 6 -21 24 -55
41 -73 16 -19 38 -60 49 -91 11 -32 31 -68 45 -81 14 -13 25 -30 25 -39 0 -16
76 -140 118 -195 11 -14 22 -39 26 -56 4 -18 20 -43 37 -58 17 -15 29 -36 29
-50 0 -36 18 -76 33 -76 15 0 42 -49 51 -90 3 -14 26 -47 52 -74 27 -28 51
-66 59 -92 7 -23 22 -55 34 -70 11 -15 21 -33 21 -40 0 -8 9 -19 20 -26 11 -7
20 -22 20 -34 0 -19 13 -39 80 -126 11 -14 34 -54 50 -87 17 -33 36 -64 44
-68 8 -4 24 -26 37 -48 13 -22 31 -46 41 -53 9 -7 23 -30 29 -52 7 -22 22 -46
34 -54 13 -8 33 -32 46 -53 13 -21 43 -58 67 -82 24 -24 52 -61 62 -83 9 -21
42 -65 72 -97 31 -32 64 -71 74 -87 11 -16 70 -79 132 -141 109 -108 150 -157
165 -196 4 -11 16 -21 27 -24 12 -3 27 -21 35 -39 9 -21 23 -36 39 -40 15 -3
28 -17 35 -34 6 -18 18 -30 33 -32 15 -2 29 -16 41 -40 11 -26 24 -38 37 -38
13 0 24 -10 30 -25 5 -14 20 -30 32 -35 13 -5 43 -27 67 -49 25 -23 47 -41 51
-41 4 0 29 -27 56 -59 27 -33 53 -60 58 -60 17 -1 98 -73 108 -97 6 -12 23
-28 39 -34 15 -7 49 -32 76 -56 26 -24 54 -44 61 -44 7 0 27 -13 45 -30 17
-16 46 -37 64 -47 17 -9 36 -27 42 -40 6 -13 17 -23 26 -23 8 0 29 -14 47 -30
17 -17 43 -33 57 -37 14 -3 40 -18 56 -33 77 -69 136 -108 174 -114 31 -5 44
-13 56 -35 8 -16 23 -32 34 -36 11 -3 36 -19 56 -35 21 -17 44 -30 52 -30 8 0
28 -13 44 -30 17 -16 53 -36 81 -45 29 -8 54 -19 57 -23 12 -17 67 -50 102
-61 20 -6 44 -20 54 -30 9 -11 46 -27 82 -37 41 -11 80 -30 105 -51 22 -18 46
-33 53 -33 7 0 39 -13 70 -30 31 -16 68 -30 81 -30 13 0 38 -14 56 -30 17 -17
40 -30 51 -30 11 0 43 -14 71 -32 28 -17 71 -35 96 -40 25 -5 59 -12 75 -15
17 -3 44 -16 60 -29 17 -12 48 -26 70 -30 22 -4 49 -13 60 -20 11 -8 34 -14
53 -14 19 0 35 -6 38 -14 4 -10 36 -19 97 -27 59 -9 102 -21 122 -35 17 -11
47 -24 66 -27 156 -31 208 -44 221 -55 9 -7 70 -20 137 -29 86 -11 128 -22
143 -34 23 -20 32 -22 193 -39 176 -18 222 -25 236 -37 29 -23 489 -43 999
-43 502 1 964 21 989 44 10 9 35 16 57 16 21 0 77 7 124 14 47 8 123 18 170
22 62 5 88 12 100 25 11 13 45 22 131 32 64 9 130 22 147 31 17 9 45 16 62 16
16 0 38 4 48 9 24 13 105 31 141 31 20 0 32 6 36 19 6 18 54 32 164 47 19 3
46 14 62 24 15 11 36 20 47 20 11 0 36 7 55 15 20 8 47 15 61 15 15 0 27 7 31
19 6 19 36 30 151 51 28 5 72 23 97 40 25 16 54 30 65 30 10 0 36 13 57 30 21
16 47 30 59 30 11 1 37 10 56 20 35 19 48 25 126 61 23 11 47 26 53 33 7 8 34
20 61 26 27 6 54 18 61 26 6 8 17 14 24 14 6 0 20 9 30 20 10 12 25 18 32 16
7 -3 28 7 46 23 17 16 55 36 82 46 60 20 111 50 119 70 3 8 16 15 28 15 23 0
109 57 158 104 14 14 44 29 67 35 29 8 60 29 102 70 34 33 78 65 98 72 41 13
101 56 173 125 55 52 103 84 125 84 8 0 24 13 35 28 11 15 41 39 65 52 25 14
45 30 45 37 0 7 4 13 9 13 5 0 35 25 67 56 33 31 86 82 119 114 33 32 72 60
86 63 14 4 31 18 37 32 7 14 23 30 37 35 14 5 30 21 37 35 6 14 16 25 21 25 5
0 43 34 84 75 40 41 77 75 81 75 12 0 42 39 42 55 0 8 7 15 14 15 8 0 27 16
41 35 15 19 35 37 46 40 10 4 22 20 27 38 6 22 16 33 33 37 13 3 25 14 27 25
7 44 34 85 70 106 20 13 42 29 47 36 15 18 95 109 136 154 20 21 42 51 48 67
6 15 21 32 33 37 13 6 28 28 36 53 10 30 30 56 69 90 31 26 61 63 70 84 8 20
25 44 38 52 13 8 26 29 30 46 4 16 15 35 26 40 10 6 19 16 19 23 0 7 23 41 50
75 28 34 50 69 50 77 0 9 18 40 40 70 22 30 40 61 40 69 0 8 13 24 29 35 17
12 31 34 35 53 3 18 19 44 35 58 18 17 30 40 35 68 4 27 18 56 39 80 32 36 67
99 67 120 0 6 8 17 18 24 9 7 25 30 34 51 10 20 22 37 27 37 6 0 15 19 21 42
7 22 25 57 40 77 16 20 36 54 46 76 9 22 24 49 35 60 10 12 27 46 38 77 11 33
42 84 75 124 30 38 58 83 62 99 3 17 18 46 34 65 15 20 31 50 35 68 3 18 15
37 26 42 10 6 19 16 19 23 0 7 11 28 24 46 13 18 27 48 30 67 4 20 26 56 55
89 31 36 53 72 60 100 7 28 20 51 36 61 17 11 31 35 41 71 9 29 24 59 35 66
11 7 28 41 40 80 12 38 28 71 35 74 19 7 104 126 104 145 0 22 27 72 50 93 11
10 20 26 20 35 0 9 18 44 39 78 22 34 43 78 47 99 4 23 18 47 36 62 15 14 28
29 28 34 0 5 14 25 30 44 17 18 30 40 30 48 0 7 16 34 35 59 19 25 37 58 41
73 10 41 32 83 69 128 18 23 39 60 45 83 7 23 24 51 36 63 13 13 24 28 24 34
0 7 9 20 20 30 11 10 20 28 20 41 0 13 5 26 10 29 17 10 60 83 60 100 0 23 28
75 61 112 15 18 33 50 39 70 5 21 35 68 65 106 30 37 55 74 55 83 0 8 15 35
34 60 19 25 40 67 47 94 8 32 21 56 36 65 13 9 23 19 23 24 0 5 16 32 35 61
19 29 35 58 35 65 0 8 15 33 34 57 18 25 36 60 40 79 3 20 20 48 36 64 20 19
33 43 37 69 4 26 18 52 40 75 18 19 33 37 33 41 0 4 13 24 29 44 16 20 32 52
35 71 4 20 13 35 21 35 7 0 23 21 35 48 51 111 64 138 77 150 7 7 16 25 19 40
4 15 14 36 23 47 14 17 78 109 103 149 4 6 9 24 13 39 3 16 16 32 29 38 17 8
26 25 35 65 8 35 23 65 40 83 15 15 38 55 51 87 22 54 87 155 109 168 5 4 13
21 17 39 3 17 14 37 23 44 17 11 35 45 67 123 10 25 26 51 36 58 9 7 20 28 24
47 3 19 21 54 39 78 17 23 35 52 39 64 4 11 17 28 30 37 16 10 26 29 31 55 3
21 17 49 30 61 24 22 39 53 50 103 3 16 19 41 36 56 16 15 38 50 48 78 18 50
66 123 80 123 8 0 41 65 42 83 0 7 16 32 35 57 42 56 68 110 83 174 6 27 27
72 45 100 48 72 116 207 116 231 0 11 14 47 30 80 16 33 30 69 30 81 0 11 7
44 16 73 8 30 17 79 20 109 4 52 18 77 36 66 4 -3 8 91 8 209 0 201 -1 215
-19 220 -13 3 -20 18 -25 53 -15 108 -40 212 -63 261 -13 29 -26 67 -30 83 -7
37 -70 162 -139 276 -62 101 -84 132 -160 213 -33 36 -64 74 -67 84 -4 9 -13
17 -20 17 -8 0 -39 26 -69 58 -52 55 -159 142 -174 142 -4 0 -21 11 -38 24
-17 13 -56 35 -86 50 -30 15 -64 33 -75 39 -67 36 -141 69 -159 71 -12 2 -30
8 -41 14 -31 17 -196 62 -255 69 -70 8 -466 11 -490 4z"/>
</g>
</svg>
